<?xml version="1.0" encoding="UTF-8" standalone="no"?>
<!-- Created with Inkscape (http://www.inkscape.org/) -->

<svg
   xmlns:dc="http://purl.org/dc/elements/1.1/"
   xmlns:cc="http://creativecommons.org/ns#"
   xmlns:rdf="http://www.w3.org/1999/02/22-rdf-syntax-ns#"
   xmlns:svg="http://www.w3.org/2000/svg"
   xmlns="http://www.w3.org/2000/svg"
   xmlns:sodipodi="http://sodipodi.sourceforge.net/DTD/sodipodi-0.dtd"
   xmlns:inkscape="http://www.inkscape.org/namespaces/inkscape"
   width="48"
   height="48"
   viewBox="0 0 48 48.000001"
   id="svg6992"
   version="1.1"
   inkscape:version="0.91 r13725"
   sodipodi:docname="ic_export_loop.svg">
  <defs
     id="defs6994">
    <marker
       inkscape:stockid="TriangleOutL"
       orient="auto"
       refY="0.0"
       refX="0.0"
       id="TriangleOutL"
       style="overflow:visible"
       inkscape:isstock="true">
      <path
         id="path7754"
         d="M 5.77,0.0 L -2.88,5.0 L -2.88,-5.0 L 5.77,0.0 z "
         style="fill-rule:evenodd;stroke:#f43530;stroke-width:1pt;stroke-opacity:1;fill:#f43530;fill-opacity:1"
         transform="scale(0.8)" />
    </marker>
    <marker
       inkscape:stockid="TriangleOutM"
       orient="auto"
       refY="0.0"
       refX="0.0"
       id="TriangleOutM"
       style="overflow:visible"
       inkscape:isstock="true">
      <path
         id="path7757"
         d="M 5.77,0.0 L -2.88,5.0 L -2.88,-5.0 L 5.77,0.0 z "
         style="fill-rule:evenodd;stroke:#f43530;stroke-width:1pt;stroke-opacity:1;fill:#f43530;fill-opacity:1"
         transform="scale(0.4)" />
    </marker>
    <marker
       inkscape:stockid="Arrow2Mend"
       orient="auto"
       refY="0.0"
       refX="0.0"
       id="Arrow2Mend"
       style="overflow:visible;"
       inkscape:isstock="true">
      <path
         id="path7639"
         style="fill-rule:evenodd;stroke-width:0.625;stroke-linejoin:round;stroke:#f43530;stroke-opacity:1;fill:#f43530;fill-opacity:1"
         d="M 8.7185878,4.0337352 L -2.2072895,0.016013256 L 8.7185884,-4.0017078 C 6.9730900,-1.6296469 6.9831476,1.6157441 8.7185878,4.0337352 z "
         transform="scale(0.6) rotate(180) translate(0,0)" />
    </marker>
    <marker
       inkscape:stockid="Arrow1Mend"
       orient="auto"
       refY="0.0"
       refX="0.0"
       id="Arrow1Mend"
       style="overflow:visible;"
       inkscape:isstock="true">
      <path
         id="path7621"
         d="M 0.0,0.0 L 5.0,-5.0 L -12.5,0.0 L 5.0,5.0 L 0.0,0.0 z "
         style="fill-rule:evenodd;stroke:#f43530;stroke-width:1pt;stroke-opacity:1;fill:#f43530;fill-opacity:1"
         transform="scale(0.4) rotate(180) translate(10,0)" />
    </marker>
    <marker
       inkscape:stockid="Arrow1Lend"
       orient="auto"
       refY="0.0"
       refX="0.0"
       id="Arrow1Lend"
       style="overflow:visible;"
       inkscape:isstock="true">
      <path
         id="path7615"
         d="M 0.0,0.0 L 5.0,-5.0 L -12.5,0.0 L 5.0,5.0 L 0.0,0.0 z "
         style="fill-rule:evenodd;stroke:#f43530;stroke-width:1pt;stroke-opacity:1;fill:#f43530;fill-opacity:1"
         transform="scale(0.8) rotate(180) translate(12.5,0)" />
    </marker>
  </defs>
  <sodipodi:namedview
     id="base"
     pagecolor="#ffffff"
     bordercolor="#666666"
     borderopacity="1.0"
     inkscape:pageopacity="0.0"
     inkscape:pageshadow="2"
     inkscape:zoom="11.2"
     inkscape:cx="17.745035"
     inkscape:cy="25.878886"
     inkscape:document-units="px"
     inkscape:current-layer="layer1"
     showgrid="false"
     units="px"
     showguides="true"
     inkscape:guide-bbox="true"
     inkscape:window-width="1317"
     inkscape:window-height="744"
     inkscape:window-x="49"
     inkscape:window-y="24"
     inkscape:window-maximized="1">
    <sodipodi:guide
       position="4.0066964,48.72768"
       orientation="1,0"
       id="guide7540" />
    <sodipodi:guide
       position="44.017857,49.151787"
       orientation="1,0"
       id="guide7542" />
    <sodipodi:guide
       position="2.6516504,44.004771"
       orientation="0,1"
       id="guide7544" />
    <sodipodi:guide
       position="10.625,4.0178572"
       orientation="0,1"
       id="guide7546" />
    <sodipodi:guide
       position="24.017857,55.267858"
       orientation="1,0"
       id="guide8098" />
    <sodipodi:guide
       position="-0.35714286,24.017858"
       orientation="0,1"
       id="guide8100" />
  </sodipodi:namedview>
  <metadata
     id="metadata6997">
    <rdf:RDF>
      <cc:Work
         rdf:about="">
        <dc:format>image/svg+xml</dc:format>
        <dc:type
           rdf:resource="http://purl.org/dc/dcmitype/StillImage" />
        <dc:title />
      </cc:Work>
    </rdf:RDF>
  </metadata>
  <g
     inkscape:label="Layer 1"
     inkscape:groupmode="layer"
     id="layer1"
     transform="translate(0,-1004.3622)">
    <path
       style="opacity:1;fill:none;fill-opacity:1;stroke:#f43530;stroke-width:3;stroke-linecap:round;stroke-linejoin:round;stroke-miterlimit:4;stroke-dasharray:none;stroke-dashoffset:0;stroke-opacity:1"
       d="m 36.580303,1034.175 c -0.09342,0.2672 -0.193567,0.5327 -0.300346,0.796 -0.106779,0.2633 -0.220265,0.5246 -0.340376,0.7835 -0.120109,0.2589 -0.246917,0.5155 -0.380406,0.7695 -0.133488,0.254 -0.273662,0.5054 -0.420436,0.7539 -0.146845,0.2486 -0.30036,0.4943 -0.460536,0.7369 -0.160174,0.2426 -0.327011,0.482 -0.500565,0.7182 -0.173481,0.2361 -0.353688,0.4688 -0.540523,0.6979 -0.186909,0.2291 -0.380452,0.4546 -0.58069,0.6763 -0.200168,0.2215 -0.407103,0.4393 -0.620649,0.6528 -6.834067,6.834 -17.914282,6.834 -24.7483455,0 -6.83406326,-6.8341 -6.83406036,-17.9143 -3.27e-5,-24.7484 6.8340952,-6.8341 17.9143252,-6.8341 24.7484162,0 0.213566,0.2136 0.418796,0.4329 0.620513,0.653 0.200301,0.2215 0.393553,0.4473 0.581039,0.6758 0.18678,0.2292 0.367086,0.4619 0.540578,0.698 0.173705,0.2359 0.3401,0.4759 0.500541,0.7182 0.160372,0.2424 0.313657,0.4883 0.460505,0.7368 0.146778,0.2486 0.286977,0.5 0.420398,0.754 0.133632,0.2539 0.260344,0.5106 0.380431,0.7695 0.120229,0.2588 0.233619,0.5202 0.340396,0.7835 0.106777,0.2633 0.20687,0.5287 0.30029,0.796"
       id="path8439"
       inkscape:connector-curvature="0"
       sodipodi:nodetypes="cssssssssssssssssssssc" />
    <path
       style="opacity:1;fill:none;fill-opacity:1;stroke:#f43530;stroke-width:1;stroke-linecap:round;stroke-linejoin:round;stroke-miterlimit:4;stroke-dasharray:none;stroke-dashoffset:0;stroke-opacity:1"
       d="m -5.826758,1031.2206 c -0.175468,0.9061 -0.438587,1.7093 -0.789453,2.5745 -0.350865,0.8652 -0.789405,1.7031 -1.315715,2.5002 -0.52624,0.7971 -1.14025,1.5533 -1.841983,2.255 -5.613724,5.6137 -14.715323,5.6137 -20.329031,0 -5.613707,-5.6137 -5.613718,-14.7153 7e-6,-20.329 5.613717,-5.6137 14.715323,-5.6137 20.32903,0 0.701714,0.7017 1.315684,1.458 1.84203,2.255 0.526275,0.7971 0.964853,1.635 1.315711,2.5002 0.350858,0.8652 0.613996,1.5791 0.789389,2.4852"
       id="circle8441"
       inkscape:connector-curvature="0"
       sodipodi:nodetypes="cssssssssc" />
    <path
       style="opacity:1;fill:none;fill-opacity:1;stroke:#f43530;stroke-width:1;stroke-linecap:round;stroke-linejoin:round;stroke-miterlimit:4;stroke-dasharray:none;stroke-dashoffset:0;stroke-opacity:1"
       d="m -9.377543,1031.364 c -0.117375,0.5258 -0.191315,0.7024 -0.357327,1.1648 -0.537457,1.3253 -1.343647,2.5672 -2.41852,3.642 -4.299564,4.2996 -11.27051,4.2996 -15.570065,10e-5 -4.299555,-4.2996 -4.299562,-11.2706 2e-6,-15.5701 4.299562,-4.2996 11.27051,-4.2996 15.570065,0 1.074889,1.0749 1.881039,2.3167 2.418498,3.6421 0.221703,0.5254 0.357315,1.1647 0.357315,1.1647"
       id="circle8443"
       inkscape:connector-curvature="0"
       sodipodi:nodetypes="ccsssscc" />
    <path
       style="opacity:1;fill:none;fill-opacity:1;stroke:#f43530;stroke-width:3;stroke-linecap:round;stroke-linejoin:round;stroke-miterlimit:4;stroke-dasharray:none;stroke-dashoffset:0;stroke-opacity:1"
       d="m 26.018448,1033.2324 c -0.163995,0.2011 -0.339703,0.3958 -0.527121,0.5832 -2.998882,2.9986 -7.860719,2.9987 -10.85948,-10e-5 -2.99876,-2.9987 -2.998777,-7.8607 -1.7e-5,-10.8594 2.998779,-2.9988 7.860515,-2.9986 10.85948,0 0.187423,0.1874 0.363131,0.3821 0.527124,0.5832"
       id="circle8445"
       inkscape:connector-curvature="0"
       sodipodi:nodetypes="cssssc" />
    <circle
       style="opacity:1;fill:#f43530;fill-opacity:1;stroke:#f43530;stroke-width:0.19216467;stroke-linecap:round;stroke-linejoin:round;stroke-miterlimit:4;stroke-dasharray:none;stroke-dashoffset:0;stroke-opacity:1"
       id="circle8447"
       cx="741.36426"
       cy="712.99286"
       r="1.4755987"
       transform="matrix(0.70710678,0.70710678,-0.70710678,0.70710678,0,0)" />
    <path
       style="opacity:1;fill:none;fill-opacity:1;stroke:#f43530;stroke-width:3;stroke-linecap:round;stroke-linejoin:round;stroke-miterlimit:4;stroke-dasharray:none;stroke-dashoffset:0;stroke-opacity:1"
       d="m 40.934916,1023.8681 4.587633,4.5876 -4.676983,4.677"
       id="rect8459"
       inkscape:connector-curvature="0"
       sodipodi:nodetypes="ccc" />
    <path
       style="fill:none;fill-rule:evenodd;stroke:#f43530;stroke-width:3;stroke-linecap:round;stroke-linejoin:miter;stroke-miterlimit:4;stroke-dasharray:none;stroke-opacity:1"
       d="m 28.184699,1028.3864 16.39064,0"
       id="path8457"
       inkscape:connector-curvature="0" />
  </g>
</svg>
